<svg width="962" height="447" viewBox="0 0 962 447" fill="none" xmlns="http://www.w3.org/2000/svg">
<path fill-rule="evenodd" clip-rule="evenodd" d="M0 0H40.404L44.252 11.544L53.872 59.644L57.72 73.112L63.492 103.896L65.416 105.82L76.96 53.872L86.58 3.848L88.504 0H146.224L153.92 32.708L159.692 59.644L167.388 98.124L171.236 90.428L182.78 36.556L190.476 0H369.408V40.404H277.056V75.036H361.712V115.44H277.056V161.616L375.18 159.692L398.268 90.428L404.04 75.036L423.28 19.24L430.976 0H477.152L484.848 15.392L509.86 88.504L532.948 153.92L538.72 148.148L544.492 138.528H548.34L552.188 128.908L565.656 109.668L590.668 75.036L611.832 44.252L612.829 42.2585L536.796 40.404V0H675.324V38.48L652.236 71.188L627.224 107.744L602.212 142.376L590.668 159.692L681.096 161.616V0H817.7V40.404H727.272V75.036H810.004V115.44H727.272V161.616H833.092V0H877.344V161.616H962V203.944H502.164L492.544 180.856L486.772 163.54V157.768L423.28 159.692L409.812 198.172L405.964 203.944H232.804L230.88 17.316L213.564 103.896L196.248 186.628L192.4 202.02L190.476 203.944H146.224L140.452 186.628L123.136 100.048L117.364 73.112L100.048 153.92L90.428 202.02L88.504 203.944H40.404L36.556 192.4L21.164 113.516L15.392 92.352L3.848 30.784L0 13.468V0ZM454.064 67.34L438.672 111.592V117.364H471.38L465.608 96.2L455.988 67.34H454.064Z" fill="#0E0E0E"/>
<path fill-rule="evenodd" clip-rule="evenodd" d="M0 232.804H575.276V446.368H0V232.804ZM486.772 257.816L469.456 263.588L461.76 269.36V273.208L455.988 275.132L450.216 290.524L448.292 307.84L454.064 327.08L467.532 338.624L488.696 348.244L515.632 357.864L519.48 365.56V379.028L517.556 388.648L506.012 392.496H488.696L475.228 384.8L467.532 369.408L465.608 363.636L444.444 365.56L446.368 384.8L457.912 404.04L477.152 415.584L482.924 417.508H504.088L527.176 409.812L536.796 402.116L546.416 382.876V359.788L538.72 342.472L527.176 332.852L477.152 313.612L471.38 307.84V294.372L482.924 284.752H504.088L513.708 292.448L517.556 305.916H540.644V292.448L531.024 275.132L517.556 263.588L509.86 259.74L486.772 257.816ZM53.872 415.584L53.8722 415.575V311.688L59.6442 317.46L59.6444 320.828L71.188 342.472L101.972 404.04L107.219 411.911L107.744 409.812L109.668 413.66L130.832 415.584V261.664L109.668 261.664V363.636H105.82L101.972 354.016H102.613L101.972 352.092L55.796 263.588L54.5136 262.306L53.8724 263.588L32.7084 261.664V415.584L53.872 415.584ZM163.54 415.584H255.892V390.572H184.704V346.32H248.196V323.232L186.628 321.308L184.704 286.676H253.968V261.664H163.54V415.584ZM267.436 261.664L269.36 280.904L280.904 338.624L290.524 384.8L296.296 415.584H329.004L330.928 413.66L344.396 340.548L347.282 325.156H346.32L350.168 305.916L352.092 303.992L355.94 307.84V316.82L359.788 334.776L375.18 415.584H405.964L411.736 392.496L429.052 303.992L436.748 263.588V261.664H411.736L405.964 277.056L396.04 330.928H396.344L394.42 350.168L388.648 352.092L386.724 330.928L375.18 277.056L371.332 261.664H332.852L315.536 350.168V357.864H311.688L303.992 313.612L292.448 261.664H267.436Z" fill="#0E0E0E"/>
<path d="M962 292.448H604.136V329.004H962V292.448Z" fill="#0E0E0E"/>
<path d="M604.136 232.804H962V269.36H604.136V232.804Z" fill="#0E0E0E"/>
<path d="M962 409.812H606.06L604.136 411.736V446.368H962V409.812Z" fill="#0E0E0E"/>
<path d="M604.136 352.092H962V388.648H606.06L604.136 386.724V352.092Z" fill="#0E0E0E"/>
</svg>
